# xmcd
#
# Track frame offsets: 
#        150
#        22897
#        54268
#        77883
#        96901
#        115801
#        140471
#        169329
#        193846
#        218850
#        242298
#        248517
#
# Disc length: 3681 seconds
#
# Revision: 0
# Processed by: cddbd v1.5.2PL0 Copyright (c) Steve Scherf et al.
# Submitted via: ExactAudioCopy v1.0b6
#
DISCID=990e5f0c
DTITLE=Jonathan David and Melissa Helser - Long Story Short (2011)
DYEAR=2011
DGENRE=Modern Praise and Worship
TTITLE0=You're Never Giving Up
TTITLE1=God of the Angel Armies
TTITLE2=Fly
TTITLE3=In the Middle
TTITLE4=Intimacy
TTITLE5=I Will Not Be Silent
TTITLE6=I've Seen I Am
TTITLE7=I Have Risen
TTITLE8=It Is Good
TTITLE9=Amy's Song
TTITLE10=Reward Prelude
TTITLE11=The Reward
EXTD=
EXTT0=
EXTT1=
EXTT2=
EXTT3=
EXTT4=
EXTT5=
EXTT6=
EXTT7=
EXTT8=
EXTT9=
EXTT10=
EXTT11=
PLAYORDER=
